<?xml version="1.0" encoding="UTF-8"?>
<svg xmlns="http://www.w3.org/2000/svg" xmlns:xlink="http://www.w3.org/1999/xlink" version="1.1" id="Layer_1" x="0px" y="0px" viewBox="0 0 127.6 127.6" xml:space="preserve"> <style>.st0 { fill: #ebfff4 }</style> <g> <path class="st0" d="M127.3,57.8c-0.8-2.2-2.9-3.4-5.1-3.1c-2.2,0.3-3.7,2.3-3.7,4.7c0,14.9,0,29.9,0,44.8 c0,8.3-5.9,14.2-14.2,14.2c-26.9,0-53.9,0-80.8,0c-8.3,0-14.2-5.9-14.2-14.2c0-26.9,0-53.9,0-80.8c0-1.3,0.1-2.6,0.5-3.8 c1.7-6.4,7-10.4,13.8-10.4c14.8,0,29.7,0,44.5,0c3,0,5-1.9,5-4.6c0-2.6-2-4.5-4.9-4.5c-15,0-30.1,0-45.1,0C10.1,0.1,0,10.2,0,22.9 c0,27.3,0,54.6,0,81.9c0,0.8,0,1.6,0.1,2.4c1.5,12,11,20.3,23.1,20.3c13.5,0,27,0,40.5,0s27,0,40.5,0c1.3,0,2.6-0.1,4-0.2 c10.7-1.5,19.2-11.2,19.3-22c0-15.3,0-30.5,0-45.8C127.5,58.9,127.5,58.4,127.3,57.8z"/> <path class="st0" d="M33.7,64.6c-1.3,1.3-1.9,2.6-1.8,4.4c0.1,3.6,0,7.1,0,10.7c0,3.7,0,7.3,0,10.9c0,3.2,1.8,5,5,5 c7.3,0,14.5,0,21.8,0c1.7,0,3.1-0.6,4.3-1.8c20.9-20.9,41.8-41.8,62.6-62.7c2.7-2.7,2.7-5,0-7.7c-7.2-7-14.4-14.2-21.6-21.4 c-2.7-2.7-5-2.7-7.7,0c-7.3,7.3-14.7,14.7-22,22C60.8,37.6,47.2,51.1,33.7,64.6z M93.5,17.7c2.1-2,4.1-4.1,6.1-6.1 c0.2-0.2,0.3-0.3,0.7-0.6c0.2,0.3,0.3,0.6,0.5,0.8c5,5,9.9,9.9,14.9,14.9c0.6,0.6,0.6,0.9,0,1.4c-2,1.9-3.9,3.9-5.8,5.8 c-0.5,0.5-0.8,0.6-1.3,0c-5-5-10-10-15-15C93.3,18.6,92.9,18.3,93.5,17.7z M83.2,28.1c1.1-1.1,2.1-3,3.4-3c1.1,0,2.2,1.9,3.3,3 c4.1,4.1,8.1,8.1,12.2,12.2c0.7,0.6,0.7,1,0,1.6C87.3,56.5,72.6,71.2,58,85.9c-0.5,0.5-0.9,0.7-1.6,0.7c-2.4,0-4.7,0-7.1,0 c-2.4,0-4.8,0-7.3,0c-0.8,0-1-0.2-1-1c0-4.8,0-9.6,0-14.4c0-0.8,0.3-1.2,0.8-1.7C55.6,55.7,69.4,41.9,83.2,28.1z"/> </g> </svg>